<svg width="27" height="23" viewBox="0 0 27 23" fill="none" xmlns="http://www.w3.org/2000/svg">
<g clip-path="url(#clip0_218_1803)">
<path d="M3.90624e-05 5.84571C0.164043 5.52034 0.429297 5.41866 0.793164 5.42075C2.98006 5.43274 5.16748 5.42648 7.35437 5.42648C7.89754 5.42648 8.109 5.63036 8.109 6.16065C8.11006 8.30578 8.11006 10.4509 8.109 12.5961C8.109 13.1409 7.89806 13.3438 7.33803 13.3443C5.16853 13.3448 2.99904 13.3386 0.829551 13.35C0.463047 13.3521 0.180391 13.2635 -0.000488281 12.9365C3.90624e-05 10.5735 3.90624e-05 8.20984 3.90624e-05 5.84571Z" fill="#F2F2F2"/>
<path d="M26.9999 17.6299C26.7874 17.7759 26.6577 17.7289 26.4963 17.512C25.1437 15.6959 22.4637 15.479 20.8126 17.038C20.7625 17.0855 20.7124 17.1329 20.6323 17.2085C19.8064 14.8282 18.9885 12.473 18.1622 10.0911C17.8932 10.1933 17.6438 10.2882 17.3743 10.3909C17.3538 9.97014 17.1666 9.67345 16.7869 9.45602C17.3348 9.24536 17.8431 9.03575 18.3626 8.85586C18.6521 8.75575 18.9147 8.92208 19.0302 9.24901C19.2707 9.92843 19.5058 10.6094 19.7347 11.2925C19.7906 11.4593 19.8771 11.5636 20.0458 11.6418C21.4085 12.2748 22.3598 13.2822 22.8234 14.7099C22.9004 14.9461 23.0122 15.016 23.2626 15.0269C24.9338 15.1009 26.1841 15.8523 26.9614 17.3352C26.9688 17.3493 26.9862 17.3577 26.9989 17.3686C26.9999 17.4562 26.9999 17.5433 26.9999 17.6299Z" fill="#F2F2F2"/>
<path d="M19.6552 19.1983C19.6552 19.6499 19.6552 20.0633 19.6552 20.4894C16.7728 20.4894 13.8761 20.4894 10.9551 20.4894C11.1571 19.1149 10.7943 17.9302 9.76436 16.9843C9.02344 16.3044 8.13381 15.9931 7.12079 15.9983C4.93916 16.0088 2.96532 18.0371 3.42305 20.4867C2.81028 20.4867 2.20014 20.4867 1.57207 20.4867C1.55995 19.6895 1.75348 18.9412 1.97971 18.205C2.20647 17.4687 2.47594 16.7455 2.73329 15.9989C2.3383 15.9373 2.2592 15.6646 2.27661 15.3153C2.29137 15.0207 2.27502 14.7245 2.28135 14.4289C2.28873 14.0779 2.44799 13.9246 2.80606 13.9246C5.73282 13.9231 8.65957 13.9231 11.5863 13.9246C11.9439 13.9246 12.0979 14.0764 12.1052 14.433C12.1116 14.7631 12.1052 15.0937 12.1079 15.4237C12.1095 15.624 12.072 15.7986 11.8874 15.9238C11.8389 15.9566 11.8099 16.0567 11.8163 16.1224C11.9149 17.1507 12.1712 18.1388 12.6236 19.0711C12.6589 19.1441 12.8187 19.1931 12.921 19.1931C15.0568 19.1999 17.1925 19.1983 19.3283 19.1983C19.4311 19.1983 19.535 19.1983 19.6552 19.1983Z" fill="#F2F2F2"/>
<path d="M12.4864 7.05124C12.3477 6.73682 12.2048 6.42396 12.0719 6.10694C11.8989 5.69345 11.5235 5.45255 11.0773 5.48019C10.6655 5.50574 10.2963 5.78626 10.2167 6.20131C10.1766 6.41145 10.1988 6.656 10.2689 6.85935C10.6043 7.83076 11.1759 8.65722 11.9263 9.36271C12.0497 9.47898 12.1109 9.58483 12.0872 9.76577C12.0408 10.1245 12.0323 10.4879 12.006 10.8811C12.2712 10.8811 12.498 10.8863 12.7242 10.8801C13.6824 10.8529 14.6348 10.8608 15.5555 11.1872C15.7675 11.2623 16.0022 11.3008 16.2274 11.3061C16.4467 11.3113 16.5712 11.4156 16.6007 11.5949C16.6445 11.8624 16.7057 12.1534 16.6455 12.4073C16.2115 14.2312 15.7501 16.0489 15.2934 17.8677C15.1779 18.3286 14.8826 18.6305 14.4154 18.7452C13.9803 18.8521 13.5928 18.7384 13.2816 18.4219C12.9526 18.0877 12.8872 17.6841 12.9995 17.2383C13.3169 15.9754 13.6281 14.711 13.9413 13.447C13.9556 13.3891 13.964 13.3302 13.9814 13.2369C13.8612 13.2369 13.7589 13.2379 13.656 13.2369C12.5929 13.227 11.5287 13.2437 10.4672 13.1999C9.42199 13.1566 8.78707 12.51 8.65207 11.4792C8.42425 9.74178 8.58826 8.04976 9.18521 6.39789C9.42779 5.72682 9.80589 5.1715 10.4777 4.85917C11.5414 4.36486 12.4342 4.81798 12.634 5.9599C12.6968 6.3202 12.6852 6.68311 12.4864 7.05124Z" fill="#F2F2F2"/>
<path d="M23.4533 16.5349C25.2367 16.5349 26.7286 18.0027 26.7181 19.7479C26.7075 21.5505 25.2547 23.0037 23.468 23.0001C21.6366 22.9959 20.1758 21.5568 20.1821 19.7631C20.1885 17.9751 21.6482 16.5349 23.4533 16.5349ZM24.7352 19.7677C24.7342 19.0581 24.1636 18.4944 23.4469 18.4949C22.7345 18.4955 22.1523 19.069 22.1539 19.7688C22.156 20.4706 22.7377 21.0426 23.448 21.0411C24.1662 21.04 24.7363 20.4758 24.7352 19.7677Z" fill="#F2F2F2"/>
<path d="M10.4578 19.7536C10.4467 21.5603 8.99758 23.0083 7.20883 23C5.38 22.9911 3.91135 21.5421 3.92243 19.7567C3.9335 17.9646 5.41639 16.5208 7.23204 16.5354C9.00655 16.5489 10.4683 18.0074 10.4578 19.7536ZM7.2004 21.041C7.91653 21.0353 8.48975 20.4654 8.48659 19.762C8.48342 19.0601 7.90018 18.4907 7.18827 18.4949C6.47213 18.4991 5.90208 19.0674 5.90524 19.7739C5.90788 20.48 6.48743 21.0467 7.2004 21.041Z" fill="#F2F2F2"/>
<path d="M15.5484 5.48801C14.4826 4.87377 13.4374 4.27205 12.3927 3.6698C12.0368 3.46436 11.6777 3.26361 11.3275 3.04931C11.2589 3.00707 11.1756 2.908 11.1809 2.84126C11.2205 2.32401 11.241 1.8005 11.3428 1.29368C11.4746 0.635639 11.9223 0.256043 12.5868 0.102744C14.365 -0.307616 15.9128 0.550647 16.8667 2.03827C16.1021 2.03827 15.3527 2.03827 14.5728 2.03827C14.5728 2.47626 14.5659 2.8908 14.5802 3.30429C14.5823 3.3679 14.6682 3.44611 14.7347 3.48783C15.0606 3.69222 15.3902 3.89089 15.724 4.08173C15.8579 4.15838 15.9043 4.24076 15.8563 4.39563C15.7461 4.75019 15.6533 5.1105 15.5484 5.48801Z" fill="#F2F2F2"/>
<path d="M17.1435 10.3644C17.1393 10.8076 16.758 11.1647 16.3082 11.1027C13.8476 10.7612 11.9007 9.65157 10.7321 7.40423C10.6124 7.17428 10.5159 6.92869 10.4378 6.68154C10.3044 6.25658 10.5201 5.85873 10.9314 5.72838C11.3232 5.60428 11.7277 5.80398 11.8748 6.21799C12.2086 7.1576 12.7935 7.91053 13.5929 8.50392C14.4351 9.1291 15.3996 9.45134 16.4316 9.60099C16.8735 9.66408 17.1478 9.96077 17.1435 10.3644Z" fill="#F2F2F2"/>
<path d="M22.4972 9.68545C22.4091 10.1193 22.3622 10.4994 22.2509 10.8607C22.1159 11.2998 21.905 11.4009 21.4552 11.3269C20.6114 11.1882 20.0334 10.442 20.0878 9.56083C20.1363 8.76305 20.8392 8.08885 21.6603 8.04661C21.9435 8.03201 22.1275 8.18531 22.1977 8.42047C22.3242 8.84804 22.4054 9.28917 22.4972 9.68545Z" fill="#F2F2F2"/>
<path d="M15.5344 3.70839C15.5086 3.70422 15.4991 3.70474 15.4917 3.70057C14.725 3.28552 14.7012 3.23754 14.7993 2.26874C15.0894 2.26874 15.3826 2.26874 15.681 2.26874C15.8545 2.6499 15.7971 3.26153 15.5344 3.70839Z" fill="#F2F2F2"/>
<path d="M13.9967 4.83521C13.0222 5.05473 11.8758 4.38574 11.6611 3.48889C12.4405 3.93784 13.1962 4.37375 13.9967 4.83521Z" fill="#F2F2F2"/>
</g>
<defs>
<clipPath id="clip0_218_1803">
<rect width="27" height="23" fill="white"/>
</clipPath>
</defs>
</svg>
