<svg width="21" height="27" viewBox="0 0 21 27" fill="none" xmlns="http://www.w3.org/2000/svg">
<path d="M14.5294 0C18.0863 0 20.9606 1.40438 21 4.97438V24.8981C21 25.1213 20.9475 25.3444 20.8425 25.5413C20.6719 25.8563 20.3831 26.0925 20.0287 26.1975C19.6875 26.3025 19.3069 26.25 18.9919 26.0662L10.4869 21.8138L1.96875 26.0662C1.77319 26.1699 1.54875 26.2369 1.32562 26.2369C0.590625 26.2369 0 25.6331 0 24.8981V4.97438C0 1.40438 2.8875 0 6.43125 0H14.5294ZM15.4219 7.9275H5.53875C4.97438 7.9275 4.515 8.38688 4.515 8.96437C4.515 9.54056 4.97438 10.0013 5.53875 10.0013H15.4219C15.9862 10.0013 16.4456 9.54056 16.4456 8.96437C16.4456 8.38688 15.9862 7.9275 15.4219 7.9275Z" fill="#C4C4C4"/>
</svg>
