<svg width="25" height="25" viewBox="0 0 25 25" fill="none" xmlns="http://www.w3.org/2000/svg">
<path fill-rule="evenodd" clip-rule="evenodd" d="M6.75 4.13158C4 4.13158 4 4.33958 4 6.88158V6.90658C4 8.01358 4 8.81358 4.271 9.15158C4.536 9.47958 5.323 9.63158 6.75 9.63158C8.177 9.63158 8.964 9.47858 9.229 9.15058C9.5 8.81358 9.5 8.01358 9.5 6.90558C9.5 4.33958 9.5 4.13158 6.75 4.13158ZM6.75 11.1316C5.064 11.1316 3.799 10.9546 3.104 10.0916C2.5 9.34258 2.5 8.32058 2.5 6.90658L3.25 6.88158H2.5C2.5 4.01158 2.681 2.63158 6.75 2.63158C10.819 2.63158 11 4.01158 11 6.88158C11 8.31958 11 9.34258 10.396 10.0916C9.701 10.9546 8.436 11.1316 6.75 11.1316Z" fill="#BDBDBD"/>
<path fill-rule="evenodd" clip-rule="evenodd" d="M17.75 4.13158C15 4.13158 15 4.33958 15 6.88158V6.90658C15 8.01358 15 8.81358 15.271 9.15158C15.536 9.47958 16.323 9.63158 17.75 9.63158C19.177 9.63158 19.964 9.47858 20.229 9.15058C20.5 8.81358 20.5 8.01358 20.5 6.90558C20.5 4.33958 20.5 4.13158 17.75 4.13158ZM17.75 11.1316C16.064 11.1316 14.799 10.9546 14.104 10.0916C13.5 9.34258 13.5 8.32058 13.5 6.90658L14.25 6.88158H13.5C13.5 4.01158 13.681 2.63158 17.75 2.63158C21.819 2.63158 22 4.01158 22 6.88158C22 8.31958 22 9.34258 21.396 10.0916C20.701 10.9546 19.436 11.1316 17.75 11.1316Z" fill="#BDBDBD"/>
<path fill-rule="evenodd" clip-rule="evenodd" d="M6.75 15.1316C4 15.1316 4 15.3396 4 17.8816V17.9066C4 19.0136 4 19.8136 4.271 20.1516C4.536 20.4796 5.323 20.6316 6.75 20.6316C8.177 20.6316 8.964 20.4786 9.229 20.1506C9.5 19.8136 9.5 19.0136 9.5 17.9056C9.5 15.3396 9.5 15.1316 6.75 15.1316ZM6.75 22.1316C5.064 22.1316 3.799 21.9546 3.104 21.0916C2.5 20.3426 2.5 19.3206 2.5 17.9066L3.25 17.8816H2.5C2.5 15.0116 2.681 13.6316 6.75 13.6316C10.819 13.6316 11 15.0116 11 17.8816C11 19.3196 11 20.3426 10.396 21.0916C9.701 21.9546 8.436 22.1316 6.75 22.1316Z" fill="#BDBDBD"/>
<path fill-rule="evenodd" clip-rule="evenodd" d="M17.75 15.1316C15 15.1316 15 15.3396 15 17.8816V17.9066C15 19.0136 15 19.8136 15.271 20.1516C15.536 20.4796 16.323 20.6316 17.75 20.6316C19.177 20.6316 19.964 20.4786 20.229 20.1506C20.5 19.8136 20.5 19.0136 20.5 17.9056C20.5 15.3396 20.5 15.1316 17.75 15.1316ZM17.75 22.1316C16.064 22.1316 14.799 21.9546 14.104 21.0916C13.5 20.3426 13.5 19.3206 13.5 17.9066L14.25 17.8816H13.5C13.5 15.0116 13.681 13.6316 17.75 13.6316C21.819 13.6316 22 15.0116 22 17.8816C22 19.3196 22 20.3426 21.396 21.0916C20.701 21.9546 19.436 22.1316 17.75 22.1316Z" fill="#BDBDBD"/>
</svg>
