<svg width="35" height="35" viewBox="0 0 35 35" fill="none" xmlns="http://www.w3.org/2000/svg">
<path d="M22.3999 16.38C19.8519 16.38 17.78 18.4519 17.78 20.9999C17.78 23.5479 19.8521 25.6198 22.3999 25.6198C24.948 25.6198 27.0198 23.5479 27.0198 20.9999C27.0198 18.4519 24.9479 16.38 22.3999 16.38ZM22.3999 24.78C20.3279 24.78 18.6198 23.072 18.6198 20.9999C18.6198 18.9278 20.3278 17.2198 22.3999 17.2198C24.472 17.2198 26.18 18.9278 26.18 20.9999C26.18 23.072 24.472 24.78 22.3999 24.78ZM24.9198 20.9999C24.9198 21.2239 24.7237 21.4198 24.4999 21.4198H22.8198V23.0999C22.8198 23.324 22.6237 23.5199 22.3999 23.5199C22.1759 23.5199 21.98 23.324 21.98 23.0999V21.4198H20.2999C20.0759 21.4198 19.88 21.2237 19.88 20.9999C19.88 20.7759 20.0761 20.58 20.2999 20.58H21.98V18.8999C21.98 18.6759 22.1761 18.48 22.3999 18.48C22.6239 18.48 22.8198 18.6761 22.8198 18.8999V20.58H24.4999C24.7239 20.58 24.9198 20.7759 24.9198 20.9999ZM21.0839 2.23992C21.3919 2.23992 21.6438 2.49187 21.6438 2.79987C21.6438 3.10786 21.3919 3.35982 21.0839 3.35982H8.73589C8.42788 3.35982 8.17594 3.10786 8.17594 2.79987C8.17594 2.49187 8.4279 2.23992 8.73589 2.23992H21.0839ZM22.9599 14.8679V4.19992C22.9599 3.89191 22.7079 3.63997 22.3999 3.63997H8.53994C8.00789 3.63997 7.55984 3.27591 7.55984 2.79992C7.55984 2.32393 8.00789 1.95987 8.53994 1.95987H22.3999C22.7079 1.95987 22.9599 1.70791 22.9599 1.39992C22.9599 1.09192 22.7079 0.839966 22.3999 0.839966H8.53994C7.39189 0.839966 6.43994 1.70792 6.43994 2.79992V19.3199C6.43994 20.552 7.53194 21.56 8.84794 21.56H16.2679C16.548 24.6959 19.1798 27.16 22.3999 27.16C25.788 27.16 28.5599 24.3879 28.5599 21C28.5599 17.7801 26.0961 15.148 22.9599 14.868L22.9599 14.8679ZM7.55989 19.3199V4.53587C7.83997 4.67591 8.17589 4.75989 8.53999 4.75989H21.84V14.8679C20.1599 15.0079 18.6759 15.848 17.6679 17.0798V13.2438C17.6679 12.9919 17.4718 12.7958 17.2199 12.7958V9.6038C17.5279 9.57587 17.7798 9.32372 17.7798 9.0157L17.78 5.8239H17.472V8.4278H17.3041V5.8239H16.94V8.4278H16.772V5.8239H16.408V8.4278H16.24V5.8239H15.8759V8.4278H15.708V5.8239H15.4V9.0159C15.4 9.35184 15.6519 9.604 15.9881 9.604V12.796C15.7361 12.796 15.54 12.9921 15.54 13.244V19.236C15.54 19.5441 15.792 19.796 16.1 19.796H16.324C16.2961 19.9921 16.24 20.2159 16.24 20.412L8.84801 20.4118C8.14801 20.4399 7.55991 19.9358 7.55991 19.3198L7.55989 19.3199ZM22.3999 26.0399C19.6278 26.0399 17.3599 23.7719 17.3599 20.9999C17.3599 18.2278 19.6278 15.9599 22.3999 15.9599C25.1719 15.9599 27.4399 18.2278 27.4399 20.9999C27.4399 23.7719 25.1719 26.0399 22.3999 26.0399ZM13.7199 13.2439V19.2359C13.7199 19.5439 13.4679 19.7958 13.1599 19.7958L12.18 19.796C11.872 19.796 11.6201 19.5441 11.6201 19.2361L11.6199 13.2721C11.6199 13.0201 11.816 12.824 12.0679 12.824V5.82402C12.9359 5.82402 13.664 6.55197 13.664 7.42012V11.0881C13.664 11.3121 13.4961 11.4801 13.272 11.4801V12.824C13.524 12.824 13.7199 13.0199 13.7199 13.2439L13.7199 13.2439Z" fill="#F2F2F2"/>
</svg>
