<svg width="15" height="15" viewBox="0 0 15 15" fill="none" xmlns="http://www.w3.org/2000/svg">
    <defs>
        <clipPath id="clip0_65_1519">
            <rect width="15" height="15" fill="white"/>
        </clipPath>
    </defs>
<g clip-path="url(#clip0_65_1519)">
<path d="M7.5 15C11.6421 15 15 11.6421 15 7.5C15 3.35786 11.6421 0 7.5 0C3.35786 0 0 3.35786 0 7.5C0 11.6421 3.35786 15 7.5 15Z" fill="#3B5998"/>
<path d="M9.38553 7.7936H8.04725V12.6965H6.01964V7.7936H5.0553V6.07055H6.01964V4.95554C6.01964 4.15818 6.39839 2.90961 8.0653 2.90961L9.56722 2.91589V4.58841H8.47748C8.29873 4.58841 8.04738 4.67772 8.04738 5.05808V6.07215H9.56267L9.38553 7.7936Z" fill="white"/>
</g>

</svg>
