<svg width="21" height="23" viewBox="0 0 21 23" fill="none" xmlns="http://www.w3.org/2000/svg">
<path d="M7.65722 20.403V17.3363C7.6572 16.5562 8.29312 15.9224 9.08101 15.9172H11.9671C12.7587 15.9172 13.4005 16.5525 13.4005 17.3363V17.3363V20.4125C13.4003 21.0748 13.9343 21.6161 14.603 21.6316H16.5271C18.4451 21.6316 20 20.0923 20 18.1934V18.1934V9.46943C19.9898 8.72242 19.6355 8.02094 19.038 7.56462L12.4577 2.31689C11.3049 1.40316 9.6662 1.40316 8.51342 2.31689L1.96203 7.57415C1.36226 8.02861 1.00739 8.73126 1 9.47895V18.1934C1 20.0923 2.55488 21.6316 4.47291 21.6316H6.39696C7.08235 21.6316 7.63797 21.0815 7.63797 20.403V20.403" stroke="#BDBDBD" stroke-width="1.5" stroke-linecap="round" stroke-linejoin="round"/>
</svg>
