<svg width="24" height="23" viewBox="0 0 24 23" fill="none" xmlns="http://www.w3.org/2000/svg">
<path d="M10.9166 0C13.7716 0 16.1 2.2885 16.1 5.106V10.6145H9.07965C8.57653 10.6145 8.17871 11.0055 8.17871 11.5C8.17871 11.983 8.57653 12.3855 9.07965 12.3855H16.1V17.8825C16.1 20.7 13.7716 23 10.8932 23H5.19506C2.32842 23 0 20.7115 0 17.894V5.1175C0 2.2885 2.34012 0 5.20676 0H10.9166ZM19.0212 7.53273C19.3662 7.17623 19.9297 7.17623 20.2747 7.52123L23.6327 10.8677C23.8052 11.0402 23.8972 11.2587 23.8972 11.5002C23.8972 11.7302 23.8052 11.9602 23.6327 12.1212L20.2747 15.4677C20.1022 15.6402 19.8722 15.7322 19.6537 15.7322C19.4237 15.7322 19.1937 15.6402 19.0212 15.4677C18.6762 15.1227 18.6762 14.5592 19.0212 14.2142L20.8612 12.3857H16.1002V10.6147H20.8612L19.0212 8.78623C18.6762 8.44123 18.6762 7.87773 19.0212 7.53273Z" fill="#F2F2F2"/>
</svg>
