<svg width="26" height="24" viewBox="0 0 26 24" fill="none" xmlns="http://www.w3.org/2000/svg">
<path fill-rule="evenodd" clip-rule="evenodd" d="M6.77085 3.5C3.79169 3.5 3.79169 3.708 3.79169 6.25V6.275C3.79169 7.382 3.79169 8.182 4.08527 8.52C4.37235 8.848 5.22494 9 6.77085 9C8.31677 9 9.16935 8.847 9.45644 8.519C9.75002 8.182 9.75002 7.382 9.75002 6.274C9.75002 3.708 9.75002 3.5 6.77085 3.5ZM6.77085 10.5C4.94435 10.5 3.57394 10.323 2.82102 9.46C2.16669 8.711 2.16669 7.689 2.16669 6.275L2.97919 6.25H2.16669C2.16669 3.38 2.36277 2 6.77085 2C11.1789 2 11.375 3.38 11.375 6.25C11.375 7.688 11.375 8.711 10.7207 9.46C9.96777 10.323 8.59735 10.5 6.77085 10.5Z" fill="#F2F2F2"/>
<path fill-rule="evenodd" clip-rule="evenodd" d="M18.6875 3.5C15.7084 3.5 15.7084 3.708 15.7084 6.25V6.275C15.7084 7.382 15.7084 8.182 16.002 8.52C16.289 8.848 17.1416 9 18.6875 9C20.2335 9 21.086 8.847 21.3731 8.519C21.6667 8.182 21.6667 7.382 21.6667 6.274C21.6667 3.708 21.6667 3.5 18.6875 3.5ZM18.6875 10.5C16.861 10.5 15.4906 10.323 14.7377 9.46C14.0834 8.711 14.0834 7.689 14.0834 6.275L14.8959 6.25H14.0834C14.0834 3.38 14.2795 2 18.6875 2C23.0956 2 23.2917 3.38 23.2917 6.25C23.2917 7.688 23.2917 8.711 22.6374 9.46C21.8845 10.323 20.514 10.5 18.6875 10.5Z" fill="#F2F2F2"/>
<path fill-rule="evenodd" clip-rule="evenodd" d="M6.77085 14.5C3.79169 14.5 3.79169 14.708 3.79169 17.25V17.275C3.79169 18.382 3.79169 19.182 4.08527 19.52C4.37235 19.848 5.22494 20 6.77085 20C8.31677 20 9.16935 19.847 9.45644 19.519C9.75002 19.182 9.75002 18.382 9.75002 17.274C9.75002 14.708 9.75002 14.5 6.77085 14.5ZM6.77085 21.5C4.94435 21.5 3.57394 21.323 2.82102 20.46C2.16669 19.711 2.16669 18.689 2.16669 17.275L2.97919 17.25H2.16669C2.16669 14.38 2.36277 13 6.77085 13C11.1789 13 11.375 14.38 11.375 17.25C11.375 18.688 11.375 19.711 10.7207 20.46C9.96777 21.323 8.59735 21.5 6.77085 21.5Z" fill="#F2F2F2"/>
<path fill-rule="evenodd" clip-rule="evenodd" d="M18.6875 14.5C15.7084 14.5 15.7084 14.708 15.7084 17.25V17.275C15.7084 18.382 15.7084 19.182 16.002 19.52C16.289 19.848 17.1416 20 18.6875 20C20.2335 20 21.086 19.847 21.3731 19.519C21.6667 19.182 21.6667 18.382 21.6667 17.274C21.6667 14.708 21.6667 14.5 18.6875 14.5ZM18.6875 21.5C16.861 21.5 15.4906 21.323 14.7377 20.46C14.0834 19.711 14.0834 18.689 14.0834 17.275L14.8959 17.25H14.0834C14.0834 14.38 14.2795 13 18.6875 13C23.0956 13 23.2917 14.38 23.2917 17.25C23.2917 18.688 23.2917 19.711 22.6374 20.46C21.8845 21.323 20.514 21.5 18.6875 21.5Z" fill="#F2F2F2"/>
</svg>
