<svg width="20" height="24" viewBox="0 0 20 24" fill="none" xmlns="http://www.w3.org/2000/svg">
<path d="M7.43266 20.0631C8.00756 19.9415 11.5107 19.9415 12.0856 20.0631C12.577 20.1766 13.1085 20.4418 13.1085 21.0209C13.0799 21.5723 12.7565 22.061 12.3096 22.3714C11.7301 22.8232 11.0501 23.1092 10.3392 23.2123C9.94598 23.2633 9.55967 23.2644 9.18021 23.2123C8.46816 23.1092 7.78811 22.8232 7.20978 22.3703C6.76175 22.061 6.4383 21.5723 6.40973 21.0209C6.40973 20.4418 6.94119 20.1766 7.43266 20.0631ZM9.827 0.250977C12.2192 0.250977 14.6628 1.38605 16.1143 3.26934C17.0561 4.48201 17.4881 5.69353 17.4881 7.57682V8.06676C17.4881 9.51108 17.8699 10.3624 18.7099 11.3434C19.3466 12.0661 19.55 12.9939 19.55 14.0004C19.55 15.0057 19.2197 15.9601 18.5579 16.735C17.6916 17.6639 16.4698 18.2569 15.2228 18.36C13.4158 18.514 11.6077 18.6438 9.77557 18.6438C7.94229 18.6438 6.1353 18.5662 4.32832 18.36C3.08022 18.2569 1.85842 17.6639 0.993215 16.735C0.331453 15.9601 0 15.0057 0 14.0004C0 12.9939 0.204586 12.0661 0.840061 11.3434C1.70641 10.3624 2.06301 9.51108 2.06301 8.06676V7.57682C2.06301 5.64257 2.54533 4.37777 3.53854 3.13962C5.01522 1.33393 7.38225 0.250977 9.72414 0.250977H9.827Z" fill="#C4C4C4"/>
</svg>
