<svg width="25" height="26" viewBox="0 0 25 26" fill="none" xmlns="http://www.w3.org/2000/svg">
<mask id="mask0_910_496" style="mask-type:alpha" maskUnits="userSpaceOnUse" x="3" y="1" width="19" height="19">
<path fill-rule="evenodd" clip-rule="evenodd" d="M3.50006 1.05263H21.997V19.3137H3.50006V1.05263Z" fill="white"/>
</mask>
<g mask="url(#mask0_910_496)">
<path fill-rule="evenodd" clip-rule="evenodd" d="M12.7471 2.63158C9.25207 2.63158 6.81607 5.51368 6.81607 8.1C6.81607 10.2884 6.23907 11.3 5.72907 12.1926C5.32007 12.9095 4.99707 13.4758 4.99707 14.7063C5.16407 16.6916 6.40907 17.7347 12.7471 17.7347C19.0501 17.7347 20.3341 16.6453 20.5001 14.6379C20.4971 13.4758 20.1741 12.9095 19.7651 12.1926C19.2551 11.3 18.6781 10.2884 18.6781 8.1C18.6781 5.51368 16.2421 2.63158 12.7471 2.63158ZM12.7471 19.3137C8.07107 19.3137 3.84507 18.9663 3.50007 14.7737C3.49707 13.0389 4.00007 12.1568 4.44407 11.38C4.89307 10.5926 5.31607 9.85053 5.31607 8.1C5.31607 4.69684 8.30207 1.05263 12.7471 1.05263C17.1921 1.05263 20.1781 4.69684 20.1781 8.1C20.1781 9.85053 20.6011 10.5926 21.0501 11.38C21.4941 12.1568 21.9971 13.0389 21.9971 14.7063C21.6481 18.9663 17.4231 19.3137 12.7471 19.3137Z" fill="#BDBDBD"/>
</g>
<path fill-rule="evenodd" clip-rule="evenodd" d="M12.6983 23.6842H12.6963C11.5753 23.6832 10.5143 23.1632 9.70927 22.2189C9.43227 21.8958 9.45727 21.3958 9.76527 21.1053C10.0733 20.8126 10.5473 20.8389 10.8243 21.1642C11.3423 21.7716 12.0073 22.1053 12.6973 22.1053H12.6983C13.3913 22.1053 14.0593 21.7716 14.5783 21.1632C14.8563 20.84 15.3303 20.8137 15.6373 21.1053C15.9453 21.3968 15.9703 21.8968 15.6933 22.22C14.8853 23.1642 13.8223 23.6842 12.6983 23.6842Z" fill="#BDBDBD"/>
</svg>
