<svg width="30" height="31" viewBox="0 0 30 31" fill="none" xmlns="http://www.w3.org/2000/svg">
<g clip-path="url(#clip0_247_1594)">
<path d="M27.2549 11.1746H11.6746C10.1661 11.1746 8.92957 12.4111 8.92957 13.9196V23.7871C8.92957 25.2957 10.1661 26.5322 11.6746 26.5322H27.2549C28.7634 26.5322 29.9999 25.2957 29.9999 23.7871V13.9196C30.0061 12.4049 28.7634 11.1746 27.2549 11.1746ZM28.5223 23.8242C28.5223 24.3683 28.0771 24.8196 27.5269 24.8196H11.6437C11.0997 24.8196 10.6483 24.3745 10.6483 23.8242V16.8811H28.5223V23.8242ZM28.5223 14.2659H10.6483V13.8887C10.6483 13.3447 11.0935 12.8933 11.6437 12.8933H27.5269C28.071 12.8933 28.5223 13.3385 28.5223 13.8887V14.2659Z" fill="#C4C4C4"/>
<path d="M11.4768 9.48046H21.1403L19.1742 5.49885C18.5003 4.13868 16.8495 3.58224 15.4894 4.25615L1.529 11.156C0.168827 11.8299 -0.387609 13.4806 0.286297 14.8408L4.66359 23.6881C5.25094 24.8814 6.60494 25.4625 7.84764 25.1225C7.47669 24.498 7.26648 23.7747 7.26648 23.0019V13.697C7.2603 11.3785 9.15836 9.48046 11.4768 9.48046Z" fill="#C4C4C4"/>
<path d="M13.4614 23.7499C13.9993 23.7499 14.4877 23.5088 14.8092 23.1255C15.1369 23.5088 15.6191 23.7499 16.157 23.7499C17.14 23.7499 17.9376 22.9524 17.9376 21.9693C17.9376 20.9863 17.14 20.1887 16.157 20.1887C15.6191 20.1887 15.1307 20.4298 14.8092 20.8132C14.4815 20.4298 13.9993 20.1887 13.4614 20.1887C12.4783 20.1887 11.6808 20.9863 11.6808 21.9693C11.6808 22.9524 12.4783 23.7499 13.4614 23.7499Z" fill="#C4C4C4"/>
</g>
<defs>
<clipPath id="clip0_247_1594">
<rect width="30" height="30" fill="white" transform="translate(0 0.250977)"/>
</clipPath>
</defs>
</svg>
