<svg width="151" height="69" viewBox="0 0 151 69" fill="none" xmlns="http://www.w3.org/2000/svg">
<path d="M2.108 37H7.922V27.344H15.198V22.822H7.922V17.79H17.646V13.132H2.108V37ZM39.2658 27.514C39.2658 21.496 34.9818 17.756 29.4058 17.756C23.8638 17.756 19.5458 21.496 19.5458 27.514C19.5458 33.532 23.7618 37.272 29.3378 37.272C34.9138 37.272 39.2658 33.532 39.2658 27.514ZM25.4618 27.514C25.4618 24.284 27.2978 22.788 29.4058 22.788C31.4458 22.788 33.3498 24.284 33.3498 27.514C33.3498 30.71 31.4118 32.24 29.3378 32.24C27.2298 32.24 25.4618 30.71 25.4618 27.514ZM60.9142 27.514C60.9142 21.496 56.6302 17.756 51.0542 17.756C45.5122 17.756 41.1942 21.496 41.1942 27.514C41.1942 33.532 45.4102 37.272 50.9862 37.272C56.5622 37.272 60.9142 33.532 60.9142 27.514ZM47.1102 27.514C47.1102 24.284 48.9462 22.788 51.0542 22.788C53.0942 22.788 54.9982 24.284 54.9982 27.514C54.9982 30.71 53.0602 32.24 50.9862 32.24C48.8782 32.24 47.1102 30.71 47.1102 27.514ZM62.8426 27.48C62.8426 33.464 66.5486 37.272 71.2066 37.272C73.9946 37.272 76.0006 36.014 77.0546 34.28V37H82.8686V11.84H77.0546V20.646C75.8986 18.912 73.7226 17.756 71.2066 17.756C66.5486 17.756 62.8426 21.496 62.8426 27.48ZM77.0546 27.514C77.0546 30.54 75.1166 32.206 72.9066 32.206C70.7306 32.206 68.7586 30.506 68.7586 27.48C68.7586 24.454 70.7306 22.822 72.9066 22.822C75.1166 22.822 77.0546 24.488 77.0546 27.514ZM92.8888 28.194C92.8888 24.93 94.4868 23.978 97.2408 23.978H98.8388V17.824C96.2888 17.824 94.2148 19.184 92.8888 21.19V18.028H87.0748V37H92.8888V28.194ZM109.982 22.414C111.92 22.414 113.552 23.604 113.552 25.678H106.276C106.616 23.57 108.078 22.414 109.982 22.414ZM119.06 30.71H112.872C112.396 31.73 111.478 32.546 109.846 32.546C107.976 32.546 106.446 31.39 106.242 28.908H119.4C119.468 28.33 119.502 27.752 119.502 27.208C119.502 21.428 115.592 17.756 110.05 17.756C104.406 17.756 100.462 21.496 100.462 27.514C100.462 33.532 104.474 37.272 110.05 37.272C114.776 37.272 118.142 34.416 119.06 30.71ZM128.383 20.714V18.028H122.569V46.044H128.383V34.348C129.437 35.946 131.443 37.272 134.231 37.272C138.889 37.272 142.595 33.464 142.595 27.48C142.595 21.496 138.889 17.756 134.231 17.756C131.443 17.756 129.437 19.048 128.383 20.714ZM136.679 27.48C136.679 30.506 134.707 32.206 132.497 32.206C130.321 32.206 128.349 30.54 128.349 27.514C128.349 24.488 130.321 22.822 132.497 22.822C134.707 22.822 136.679 24.454 136.679 27.48Z" fill="#E5E5E5"/>
<path d="M124.212 57.316C123.163 58.9104 126.294 60.5064 127.369 61.8263C128.432 63.1317 130.319 64.2398 131.916 65.1494C135.69 67.2993 140.737 69.1184 145.116 67.1725C147.165 66.2619 148.38 65.1458 149.144 63.3956C150.217 60.9354 150.337 58.0431 149.186 55.5736C148.017 53.0657 145.713 51.8321 143.304 50.3479C142.24 49.6918 141.451 48.8782 139.998 49.0153C139.901 49.0243 138.866 49.6065 138.746 49.5988C138.06 52.0429 134.306 54.4066 131.915 55.1967C130.471 55.6742 130.335 56.2066 128.815 56.584C127.911 56.808 128.328 56.965 126.904 57.329" fill="#EDA92E"/>
<path d="M124.212 57.316C123.163 58.9104 126.294 60.5064 127.369 61.8263C128.432 63.1317 130.319 64.2398 131.916 65.1494C135.69 67.2993 140.737 69.1184 145.116 67.1725C147.165 66.2619 148.38 65.1458 149.144 63.3956C150.217 60.9354 150.337 58.0431 149.186 55.5736C148.017 53.0657 145.713 51.8321 143.304 50.3479C142.24 49.6918 141.451 48.8782 139.998 49.0153C139.901 49.0243 138.866 49.6065 138.746 49.5988C138.06 52.0429 134.306 54.4066 131.915 55.1967C130.471 55.6742 130.335 56.2066 128.815 56.584C127.911 56.808 128.328 56.965 126.904 57.329" stroke="#EDA92E" stroke-miterlimit="10"/>
<path d="M141 47.1334C141 50.7506 125.292 59 114 59C104.665 59 87 50.7504 87 46.0434C87 40.9648 97.3399 56.0767 114.45 56.0767C130.819 56.0519 141 44.2844 141 47.1334Z" fill="#E5E5E5" stroke="#E5E5E5" stroke-miterlimit="10"/>
</svg>
