<svg width="17" height="18" viewBox="0 0 17 18" fill="none" xmlns="http://www.w3.org/2000/svg">
<path fill-rule="evenodd" clip-rule="evenodd" d="M7.93454 0.0304275C8.28061 0.0304275 8.56148 0.311296 8.56148 0.657367C8.56148 1.00344 8.28061 1.28431 7.93454 1.28431H4.80904C2.64903 1.28431 1.25388 2.76388 1.25388 5.05347V12.0033C1.25388 14.2929 2.64903 15.7725 4.80904 15.7725H12.1852C14.3452 15.7725 15.7412 14.2929 15.7412 12.0033V8.63621C15.7412 8.29014 16.0221 8.00928 16.3681 8.00928C16.7142 8.00928 16.9951 8.29014 16.9951 8.63621V12.0033C16.9951 15.0076 15.0616 17.0263 12.1852 17.0263H4.80904C1.93264 17.0263 0 15.0076 0 12.0033V5.05347C0 2.04917 1.93264 0.0304275 4.80904 0.0304275H7.93454ZM15.2151 0.764866L16.2324 1.78218C16.7281 2.27704 17.0006 2.93491 16.9998 3.63541C16.9998 4.33591 16.7272 4.99294 16.2324 5.48697L9.95546 11.7639C9.49487 12.2245 8.88131 12.4786 8.22929 12.4786H5.09794C4.92908 12.4786 4.76691 12.4101 4.64905 12.2888C4.53118 12.1685 4.46682 12.0055 4.471 11.8358L4.54957 8.67684C4.56546 8.04823 4.81874 7.45723 5.26345 7.01169H5.26428L11.5111 0.764866C12.5326 -0.254955 14.1936 -0.254955 15.2151 0.764866ZM10.9965 3.05194L6.15036 7.8986C5.93386 8.1151 5.81098 8.40266 5.80345 8.70777L5.74076 11.2247H8.22929C8.54694 11.2247 8.84453 11.1018 9.06939 10.877L13.9448 6.00023L10.9965 3.05194ZM12.3972 1.65178L11.8826 2.16503L14.8309 5.11415L15.3463 4.60006C15.6038 4.3426 15.7459 3.99987 15.7459 3.63541C15.7459 3.27012 15.6038 2.92655 15.3463 2.66909L14.329 1.65178C13.7965 1.12097 12.9305 1.12097 12.3972 1.65178Z" fill="#E5E5E5"/>
</svg>
