<svg width="33" height="33" viewBox="0 0 33 33" fill="none" xmlns="http://www.w3.org/2000/svg">
<circle cx="16.5" cy="16.5" r="16" stroke="#F2F2F2"/>
<g clip-path="url(#clip0_205_966)">
<path d="M10.5248 19.1464L10.5622 12.6451H9.81428V20.9174C10.8421 20.6569 11.8735 20.4912 12.9122 20.4841C13.8712 20.4782 14.8302 20.6096 15.7917 20.9292C15.1946 20.4545 14.5287 20.1053 13.8181 19.878C12.923 19.5915 11.9555 19.4968 10.9639 19.5797C10.7395 19.5974 10.5441 19.4341 10.5248 19.2151C10.5224 19.1914 10.5224 19.1689 10.5248 19.1464ZM21.5001 12.3053C21.4977 12.2864 21.4953 12.2663 21.4953 12.245C21.4953 12.2248 21.4965 12.2047 21.5001 12.1846V10.8682C20.5592 10.7806 19.5893 10.8824 18.7424 11.1973C17.9511 11.4921 17.2683 11.9763 16.8243 12.67V20.168C17.5144 19.7158 18.2201 19.3441 18.9451 19.0908C19.7714 18.8019 20.6207 18.6646 21.5001 18.7333V12.3053ZM22.3144 11.846H23.417C23.6414 11.846 23.8235 12.0248 23.8235 12.245V21.4382C23.8235 21.6584 23.6414 21.8372 23.417 21.8372C23.3712 21.8372 23.3265 21.8301 23.2855 21.8159C22.1515 21.4974 21.0248 21.2855 19.9089 21.2784C18.8208 21.2713 17.7339 21.4595 16.6422 21.9319C16.5746 21.9757 16.4938 21.9993 16.4106 21.9982C16.3285 21.9993 16.2477 21.9757 16.1789 21.9319C15.0884 21.4583 14.0003 21.2713 12.9122 21.2784C11.7963 21.2855 10.6708 21.4974 9.53562 21.8159C9.4946 21.8301 9.44997 21.8372 9.40412 21.8372C9.18216 21.8383 9 21.6596 9 21.4394V12.245C9 12.0248 9.18216 11.846 9.40654 11.846H10.5658L10.5731 10.5131C10.5743 10.3213 10.7118 10.1627 10.8964 10.1248C11.9664 9.90582 13.2668 9.96027 14.4068 10.3888C15.1946 10.6847 15.9099 11.1571 16.4323 11.8389C16.9594 11.2032 17.6639 10.7463 18.4565 10.4515C19.5398 10.0479 20.7896 9.9508 21.9658 10.1201C22.1684 10.1485 22.3132 10.3201 22.3132 10.5143V11.846H22.3144ZM17.2188 20.8688C18.1175 20.5918 19.015 20.4782 19.9126 20.4829C20.9512 20.4888 21.9827 20.6557 23.0105 20.9162V12.6451H22.3144V19.1819C22.3144 19.4021 22.1322 19.5809 21.9079 19.5809C21.8753 19.5809 21.8439 19.5773 21.8138 19.5702C20.9235 19.4329 20.0609 19.5465 19.2189 19.8413C18.541 20.0792 17.8751 20.4344 17.2188 20.8688ZM16.0113 20.0911V12.6581C15.5854 11.9206 14.8966 11.427 14.1185 11.1346C13.2367 10.8031 12.2463 10.7285 11.3825 10.8493L11.3367 18.7581C12.2788 18.725 13.2005 18.8422 14.0678 19.1204C14.7579 19.3406 15.4117 19.6637 16.0113 20.0911Z" fill="#F2F2F2"/>
</g>
<defs>
<clipPath id="clip0_205_966">
<rect width="14.8235" height="12" fill="white" transform="translate(9 10)"/>
</clipPath>
</defs>
</svg>
