<svg width="16" height="15" viewBox="0 0 16 15" fill="none" xmlns="http://www.w3.org/2000/svg">
    <defs>
        <linearGradient id="paint0_linear_65_1494" x1="8.06073" y1="-8.12171" x2="8.06073" y2="16.3773" gradientUnits="userSpaceOnUse">
            <stop offset="0.3172" stop-color="#20A9E5"/>
            <stop offset="0.672" stop-color="#1686C3"/>
        </linearGradient>
    </defs>
<path d="M15.4035 7.49998C15.4035 11.6232 12.1053 14.9644 8.07021 14.9644C4.00003 14.9644 0.701782 11.6232 0.701782 7.49998C0.701782 3.37675 4.00003 0.0355225 8.07021 0.0355225C12.1053 0.0710675 15.4035 3.37675 15.4035 7.49998Z" fill="url(#paint0_linear_65_1494)"/>
<path fill-rule="evenodd" clip-rule="evenodd" d="M3.61401 10.5569C4.31577 10.5925 4.98243 10.4858 5.61401 10.2015C5.9298 10.0593 6.17542 9.91713 6.42103 9.70386C6.10524 9.70386 5.82454 9.63277 5.57893 9.49059C5.15787 9.27732 4.87717 8.92187 4.66664 8.45978C4.63156 8.35315 4.63156 8.35315 4.73682 8.35315C5.05261 8.38869 5.26314 8.38869 5.43857 8.3176C5.29822 8.24651 5.12278 8.21097 5.01752 8.10433C4.38594 7.74888 4.03507 7.18016 3.96489 6.43372C3.96489 6.36263 3.96489 6.32708 4.07015 6.36263C4.28068 6.50481 4.52629 6.5759 4.80699 6.61144C4.70173 6.50481 4.59647 6.39817 4.49121 6.29154C3.96489 5.72282 3.82454 4.79864 4.17542 4.08774C4.2105 3.98111 4.24559 3.98111 4.31577 4.08774C5.22805 5.11855 6.35085 5.75836 7.68419 6.00718C7.82454 6.00718 7.96489 6.00718 8.10524 6.04272C8.2105 6.04272 8.2105 6.00718 8.2105 5.93609C8.07015 5.11855 8.45612 4.30101 9.15787 3.87447C9.89471 3.44793 10.8421 3.59011 11.4386 4.15883C11.5087 4.22992 11.5789 4.22992 11.6491 4.22992C12 4.15883 12.3509 4.01665 12.6666 3.83893C12.7017 3.83893 12.7017 3.80338 12.7368 3.80338C12.6316 4.22992 12.3509 4.54983 11.9298 4.83419C12.3158 4.79864 12.6316 4.69201 12.9824 4.54983C12.9824 4.58537 12.9473 4.62092 12.9473 4.65647C12.7017 4.97637 12.4561 5.26073 12.1403 5.50955C12.0702 5.54509 12.0702 5.58064 12.0702 5.65173C12.1052 7.07353 11.6491 8.35315 10.7368 9.49059C9.85963 10.4858 8.77191 11.1257 7.50875 11.3389C6.14033 11.5522 4.84208 11.3389 3.6491 10.5925C3.6491 10.5569 3.61401 10.5569 3.61401 10.5569Z" fill="white"/>

</svg>
