<svg width="15" height="15" viewBox="0 0 15 15" fill="none" xmlns="http://www.w3.org/2000/svg">
    <defs>
        <linearGradient id="paint0_linear_65_1489" x1="7.19895" y1="-5.87023" x2="7.47369" y2="17.4533" gradientUnits="userSpaceOnUse">
            <stop offset="0.1322" stop-color="#01CF2D"/>
            <stop offset="0.794" stop-color="#009804"/>
        </linearGradient>
    </defs>
<path d="M14.7018 7.48225C14.7018 11.6055 11.4035 14.9467 7.33333 14.9467C3.29825 14.9467 0 11.6055 0 7.48225C0 3.39458 3.29825 0.0533447 7.33333 0.0533447C11.4035 0.0533447 14.7018 3.39458 14.7018 7.48225Z" fill="url(#paint0_linear_65_1489)"/>
<path fill-rule="evenodd" clip-rule="evenodd" d="M11.7193 6.45145C11.228 4.3543 9.47365 2.96804 7.3333 2.9325C7.0526 2.9325 6.73681 2.96804 6.49119 3.03913C3.50874 3.6434 1.99997 6.94908 3.43856 9.61496C3.47365 9.68605 3.47365 9.75714 3.47365 9.82823C3.26312 10.5036 3.08769 11.25 2.87716 11.9254C2.84207 12.0676 2.84207 12.0676 2.98242 12.032C3.71926 11.8188 4.42102 11.641 5.15786 11.4633C5.22804 11.4278 5.26312 11.4278 5.3333 11.4633C6.24558 11.9254 7.22804 12.0676 8.28067 11.8898C10.7017 11.4278 12.2807 8.90406 11.7193 6.45145ZM7.96488 11.1789C7.75435 11.2145 7.57891 11.25 7.47365 11.2145C6.66663 11.2145 6.03505 11.0368 5.43856 10.7169C5.36839 10.6458 5.29821 10.6458 5.22804 10.6458C4.80698 10.7524 4.42102 10.859 4.03505 10.9657C3.96488 11.0012 3.92979 10.9657 3.96488 10.8946C4.07014 10.5036 4.1754 10.1481 4.28067 9.75714C4.28067 9.65051 4.28067 9.57942 4.21049 9.47278C3.40348 8.15761 3.43856 6.52254 4.35084 5.27847C5.29821 3.99885 6.59646 3.46567 8.14032 3.78558C9.64909 4.10548 10.6315 5.10074 10.9824 6.62918C11.4736 8.76188 10.0701 10.8235 7.96488 11.1789Z" fill="white"/>
<path fill-rule="evenodd" clip-rule="evenodd" d="M8.52644 9.61498C8.38609 9.61498 8.21065 9.61498 8.0703 9.54389C7.01767 9.25953 6.24574 8.61972 5.64925 7.76664C5.40363 7.44673 5.19311 7.09128 5.12293 6.70029C5.01767 6.2382 5.15802 5.81166 5.5089 5.49176C5.64925 5.38512 5.96504 5.31403 6.10539 5.38512C6.14048 5.42067 6.17556 5.45621 6.21065 5.5273C6.351 5.84721 6.49135 6.13157 6.59662 6.45147C6.6317 6.52256 6.59662 6.59365 6.56153 6.6292C6.52644 6.77138 6.42118 6.87801 6.31592 7.02019C6.21065 7.09128 6.21065 7.16237 6.28083 7.26901C6.66679 7.87327 7.15802 8.33536 7.82469 8.58417C7.92995 8.61972 8.00013 8.61972 8.0703 8.54863C8.17556 8.40645 8.28083 8.26427 8.42118 8.12209C8.49135 8.01545 8.56153 8.01545 8.66679 8.051C8.87732 8.15763 9.08785 8.26427 9.29837 8.3709C9.36855 8.40645 9.40364 8.40645 9.43872 8.44199C9.64925 8.54863 9.64925 8.58417 9.64925 8.79744C9.61416 9.25953 9.26328 9.50834 8.84223 9.61498C8.70188 9.65052 8.63171 9.65052 8.52644 9.61498Z" fill="white"/>

</svg>
